<svg xmlns="http://www.w3.org/2000/svg" viewBox="0 0 900 900" role="img" aria-labelledby="title desc">
  <title id="title">Gelo, carvão e churrasqueira</title>
  <desc id="desc">Ilustração de churrasqueira, carvão e gelo para conveniência de churrasqueira.</desc>
  <defs>
    <linearGradient id="bg" x1="0" x2="1" y1="0" y2="1">
      <stop offset="0%" stop-color="#121315"/>
      <stop offset="100%" stop-color="#08090a"/>
    </linearGradient>
    <radialGradient id="ember" cx="50%" cy="50%" r="50%">
      <stop offset="0%" stop-color="#ffda7d"/>
      <stop offset="40%" stop-color="#ff9b1a"/>
      <stop offset="100%" stop-color="#8a4200"/>
    </radialGradient>
  </defs>
  <rect width="900" height="900" fill="url(#bg)"/>
  <circle cx="190" cy="710" r="180" fill="#f7ad1d" opacity="0.14"/>
  <g transform="translate(120 120)">
    <path d="M110 530h470l-50 120H160z" fill="#2e2f31"/>
    <path d="M180 500h320c40 0 72-32 72-72V310c0-35-28-63-63-63H171c-35 0-63 28-63 63v118c0 40 32 72 72 72z" fill="#3b3d42"/>
    <path d="M284 140h120v120H284z" fill="#17191c"/>
    <path d="M196 164h250c31 0 56 25 56 56v222c0 47-38 85-85 85H225c-47 0-85-38-85-85V220c0-31 25-56 56-56z" fill="#201f22"/>
    <path d="M220 260c34-48 90-75 155-75 65 0 120 27 155 75" fill="none" stroke="#d4d9df" stroke-width="18" stroke-linecap="round" opacity="0.7"/>
    <g fill="#0d0f12">
      <circle cx="270" cy="370" r="38"/>
      <circle cx="340" cy="340" r="36"/>
      <circle cx="410" cy="378" r="40"/>
      <circle cx="300" cy="440" r="34"/>
      <circle cx="380" cy="440" r="32"/>
    </g>
    <g fill="url(#ember)">
      <circle cx="270" cy="370" r="18"/>
      <circle cx="340" cy="340" r="17"/>
      <circle cx="410" cy="378" r="18"/>
      <circle cx="300" cy="440" r="16"/>
      <circle cx="380" cy="440" r="16"/>
    </g>
    <g transform="translate(532 130)">
      <path d="M0 120h160v175c0 58-47 105-105 105H105c-58 0-105-47-105-105V120z" fill="#dfe7ee" opacity="0.94"/>
      <path d="M32 0h96v180H32z" fill="#f5f7fb"/>
      <path d="M25 220h110" stroke="#c5d0db" stroke-width="14" stroke-linecap="round"/>
      <path d="M30 250h104" stroke="#c5d0db" stroke-width="14" stroke-linecap="round"/>
      <path d="M18 310h126" stroke="#c5d0db" stroke-width="14" stroke-linecap="round"/>
      <circle cx="80" cy="340" r="26" fill="#f7b31a" opacity="0.85"/>
    </g>
    <path d="M110 610c78-36 176-54 289-54 112 0 209 18 286 54" fill="none" stroke="#f7b31a" stroke-width="18" stroke-linecap="round" opacity="0.75"/>
  </g>
</svg>
